{"title":"The Golden Fern / Zlate Kapradi (Jiri Weiss, 1963)","uid":8151316,"size":1560894803,"categoryP":"video","categoryS":"movies","magnet":"?xt=urn:btih:2e724e80fccbc99a29ceee6b9a4d1949620826b9&amp;dn=The+Golden+Fern+%2F+Zlate+Kapradi+%28Jiri+Weiss%2C+1963%29&amp;tr=udp%3A%2F%2Ftracker.openbittorrent.com%3A80&amp;tr=udp%3A%2F%2Fopen.demonii.com%3A1337&amp;tr=udp%3A%2F%2Ftracker.coppersurfer.tk%3A6969&amp;tr=udp%3A%2F%2Fexodus.desync.com%3A6969","seeders":0,"leechers":2,"uploader":"moonflux","files":-1,"time":1361042736,"description":"This is the story of a shepherd in Bohemia during a war between Austria and Turkey. Wandering in the forest he finds a golden fern...\n\nGeneral\nComplete name : Zlate.kapradi.1963.XVID-KG.avi\nFormat : AVI\nFormat/Info : Audio Video Interleave\nFile size : 1.45 GiB\nDuration : 1h 46mn\nOverall bit rate : 1 958 Kbps\n\nVideo\nID : 0\nFormat : MPEG-4 Visual\nFormat profile : Advanced Simple@L5\nFormat settings, BVOP : Yes\nFormat settings, QPel : No\nFormat settings, GMC : No warppoints\nFormat settings, Matrix : Default (MPEG)\nCodec ID : XVID\nCodec ID/Hint : XviD\nDuration : 1h 46mn\nBit rate : 1 501 Kbps\nWidth : 720 pixels\nHeight : 320 pixels\nDisplay aspect ratio : 2.25:1\nFrame rate : 25.000 fps\nColor space : YUV\nChroma subsampling : 4:2:0\nBit depth : 8 bits\nScan type : Progressive\nCompression mode : Lossy\nBits/(Pixel*Frame) : 0.261\nStream size : 1.11 GiB (77%)\nWriting library : XviD 1.2.1 (UTC 2008-12-04)\n\nAudio\nID : 1\nFormat : AC-3\nFormat/Info : Audio Coding 3\nMode extension : CM (complete main)\nCodec ID : 2000\nDuration : 1h 46mn\nBit rate mode : Constant\nBit rate : 448 Kbps\nChannel(s) : 2 channels\nChannel positions : Front: L R\nSampling rate : 48.0 KHz\nBit depth : 16 bits\nCompression mode : Lossy\nStream size : 341 MiB (23%)\nAlignment : Split accross interleaves\nInterleave, duration : 40 ms (1.00 video frame)\nInterleave, preload duration : 500 ms ","torrent":{"xt":"urn:btih:2e724e80fccbc99a29ceee6b9a4d1949620826b9","amp;dn":"The+Golden+Fern+%2F+Zlate+Kapradi+%28Jiri+Weiss%2C+1963%29","amp;tr":["udp%3A%2F%2Ftracker.openbittorrent.com%3A80","udp%3A%2F%2Fopen.demonii.com%3A1337","udp%3A%2F%2Ftracker.coppersurfer.tk%3A6969","udp%3A%2F%2Fexodus.desync.com%3A6969"],"infoHash":"2e724e80fccbc99a29ceee6b9a4d1949620826b9","infoHashBuffer":{"type":"Buffer","data":[46,114,78,128,252,203,201,154,41,206,238,107,154,77,25,73,98,8,38,185]},"announce":[],"urlList":[]}}